<?xml version="1.0" encoding="utf-8"?>
<!-- Svg Vector Icons : http://www.onlinewebfonts.com/icon -->
<!DOCTYPE svg PUBLIC "-//W3C//DTD SVG 1.1//EN" "http://www.w3.org/Graphics/SVG/1.1/DTD/svg11.dtd">
<svg version="1.1" xmlns="http://www.w3.org/2000/svg" xmlns:xlink="http://www.w3.org/1999/xlink" x="0px" y="0px" viewBox="0 0 256 256" enable-background="new 0 0 256 256" xml:space="preserve">
<metadata> Svg Vector Icons : http://www.onlinewebfonts.com/icon </metadata>
<g> <path fill="#000000" d="M246,144.5c0,2.6-0.9,4.8-2.8,6.6c-1.9,1.9-4.1,2.8-6.6,2.8h-33c0,16.8-3.3,31.1-9.9,42.8l30.7,30.8 c1.9,1.9,2.8,4.1,2.8,6.6c0,2.6-0.9,4.8-2.8,6.6c-1.8,1.9-4,2.8-6.6,2.8s-4.9-0.9-6.6-2.8l-29.2-29.1c-0.5,0.5-1.2,1.1-2.2,1.9 c-1,0.8-3,2.2-6.2,4.2c-3.1,2-6.3,3.8-9.6,5.4c-3.2,1.6-7.3,3-12.1,4.3c-4.8,1.3-9.6,1.9-14.3,1.9V97.3h-18.9v132.2 c-5,0-10-0.7-15-2c-5-1.3-9.2-2.9-12.8-4.9c-3.6-1.9-6.8-3.8-9.7-5.8c-2.9-1.9-5-3.5-6.4-4.8l-2.2-2.1l-27,30.5 c-2,2.1-4.3,3.1-7.1,3.1c-2.4,0-4.5-0.8-6.3-2.4c-1.9-1.8-2.9-4-3-6.6c-0.1-2.6,0.6-4.9,2.3-6.9L61,194.4 c-5.7-11.2-8.6-24.7-8.6-40.4h-33c-2.6,0-4.8-0.9-6.6-2.8c-1.9-1.9-2.8-4.1-2.8-6.6c0-2.6,0.9-4.8,2.8-6.6c1.9-1.9,4.1-2.8,6.6-2.8 h33V91.7L27,66.2c-1.9-1.9-2.8-4.1-2.8-6.6s0.9-4.8,2.8-6.6c1.9-1.9,4.1-2.8,6.6-2.8c2.6,0,4.8,0.9,6.6,2.8l25.5,25.5h124.5 l25.5-25.5c1.9-1.9,4.1-2.8,6.6-2.8c2.6,0,4.8,0.9,6.6,2.8c1.9,1.9,2.8,4.1,2.8,6.6s-0.9,4.8-2.8,6.6l-25.5,25.5v43.4h33 c2.6,0,4.8,0.9,6.6,2.8C245.1,139.8,246,142,246,144.5L246,144.5L246,144.5L246,144.5z M175.2,59.6H80.8c0-13.1,4.6-24.2,13.8-33.4 c9.2-9.2,20.3-13.8,33.4-13.8c13.1,0,24.2,4.6,33.4,13.8C170.6,35.3,175.2,46.5,175.2,59.6L175.2,59.6L175.2,59.6L175.2,59.6z"/></g>
</svg>