<svg width="24" height="24" viewBox="0 0 24 24" fill="none" xmlns="http://www.w3.org/2000/svg">
<rect x="1.25" y="1.25" width="21.5" height="21.5" rx="10.75" fill="#FF9900"/>
<rect x="1.25" y="1.25" width="21.5" height="21.5" rx="10.75" stroke="url(#paint0_linear_973_57)" stroke-width="2.5"/>
<g filter="url(#filter0_d_973_57)">
<path d="M7 10.5C7 12.3507 8.0055 13.9666 9.5 14.8311V16.3333V17.6655C9.5 18.6787 10.3213 19.5 11.3345 19.5H12H12.6655C13.6787 19.5 14.5 18.6787 14.5 17.6655V16.3333V14.8311C15.9945 13.9666 17 12.3507 17 10.5C17 7.73858 14.7614 5.5 12 5.5C9.23858 5.5 7 7.73858 7 10.5Z" fill="#6F6F6F"/>
<path d="M14.5 16.3333H9.5M14.0833 10.5C14.0833 9.34941 13.1506 8.41667 12 8.41667M7 10.5C7 12.3507 8.0055 13.9666 9.5 14.8311V17.6655C9.5 18.6787 10.3213 19.5 11.3345 19.5H12H12.6655C13.6787 19.5 14.5 18.6787 14.5 17.6655V14.8311C15.9945 13.9666 17 12.3507 17 10.5C17 7.73858 14.7614 5.5 12 5.5C9.23858 5.5 7 7.73858 7 10.5Z" stroke="white" stroke-width="2" stroke-linecap="round" stroke-linejoin="round"/>
</g>
<path d="M7 10.5C7 12.3507 8.0055 13.9666 9.5 14.8311V16.3333V17.6655C9.5 18.6787 10.3213 19.5 11.3345 19.5H12H12.6655C13.6787 19.5 14.5 18.6787 14.5 17.6655V16.3333V14.8311C15.9945 13.9666 17 12.3507 17 10.5C17 7.73858 14.7614 5.5 12 5.5C9.23858 5.5 7 7.73858 7 10.5Z" fill="#6F6F6F"/>
<path d="M9.5 14.8311C8.0055 13.9666 7 12.3507 7 10.5C7 7.73858 9.23858 5.5 12 5.5C14.7614 5.5 17 7.73858 17 10.5C17 12.3507 15.9945 13.9666 14.5 14.8311V16.2483V16.3333H9.5V14.8311Z" fill="#FFC401"/>
<path d="M14.9167 9.66667C14.9167 8.51608 13.9839 7.58334 12.8333 7.58334" stroke="white" stroke-linecap="round" stroke-linejoin="round"/>
<path d="M9 16.2H15" stroke="white" stroke-linecap="round"/>
<path d="M9 18H15" stroke="white" stroke-width="0.5" stroke-linecap="round"/>
<defs>
<filter id="filter0_d_973_57" x="2.6" y="1.1" width="18.8" height="22.8" filterUnits="userSpaceOnUse" color-interpolation-filters="sRGB">
<feFlood flood-opacity="0" result="BackgroundImageFix"/>
<feColorMatrix in="SourceAlpha" type="matrix" values="0 0 0 0 0 0 0 0 0 0 0 0 0 0 0 0 0 0 127 0" result="hardAlpha"/>
<feOffset/>
<feGaussianBlur stdDeviation="1.7"/>
<feComposite in2="hardAlpha" operator="out"/>
<feColorMatrix type="matrix" values="0 0 0 0 0 0 0 0 0 0 0 0 0 0 0 0 0 0 0.25 0"/>
<feBlend mode="normal" in2="BackgroundImageFix" result="effect1_dropShadow_973_57"/>
<feBlend mode="normal" in="SourceGraphic" in2="effect1_dropShadow_973_57" result="shape"/>
</filter>
<linearGradient id="paint0_linear_973_57" x1="19.5" y1="1.5" x2="8" y2="18" gradientUnits="userSpaceOnUse">
<stop stop-color="#FFC72D"/>
<stop offset="1" stop-color="#EA7E02"/>
</linearGradient>
</defs>
</svg>
